<svg id="Layer_1" data-name="Layer 1" xmlns="http://www.w3.org/2000/svg" viewBox="0 0 793.7 796.35">
  <defs>
    <style>
      .cls-1 {
        fill: #f2f2f2;
      }
    </style>
  </defs>
  <g>
    <path class="cls-1" d="M226.65,874.87l-41.11-67.34h-7.82v67.34H142.41V704.63q6.06-.25,20.18-.63t31.27-.38a112.55,112.55,0,0,1,26.86,2.9,57,57,0,0,1,20.05,9A38.44,38.44,0,0,1,253.38,731q4.29,9.45,4.29,22.32,0,19.17-10.09,31.27t-26.73,16.65q1.76,2.26,5.55,7.56t7.31,10.85l35.56,55.23ZM220.6,756.71q0-11.54-7.19-17.81t-21.82-6.27q-4,0-8.07.12c-2.69.09-4.62.21-5.8.38V781.3c1.18,0,2.94.05,5.3.13s4.87.12,7.56.12q14.13,0,22.07-6.52T220.6,756.71Z" transform="translate(-142.41 -81.55)"/>
    <path class="cls-1" d="M439.77,786.35q0,21.69-6.57,38.84a81.14,81.14,0,0,1-18.31,28.87,79,79,0,0,1-27,17.78,87.26,87.26,0,0,1-32.46,6.06q-19.2,0-34-5.68a64.38,64.38,0,0,1-24.75-16.52,70.32,70.32,0,0,1-15-26.6q-5.06-15.76-5.05-35.94,0-21.69,6.56-38.84a81.21,81.21,0,0,1,18.32-28.88,79.35,79.35,0,0,1,26.9-17.78,86.25,86.25,0,0,1,32.33-6.06q19.2,0,34.1,5.68a64.3,64.3,0,0,1,24.89,16.52,70.44,70.44,0,0,1,15,26.61Q439.76,766.18,439.77,786.35Zm-37.83,3.9q0-26.93-11.07-41.89t-32.69-15A42.22,42.22,0,0,0,340.57,737a39.26,39.26,0,0,0-13.95,10.7,48.7,48.7,0,0,0-9.06,17.49A82.3,82.3,0,0,0,314.42,789q0,26.94,11.07,41.78t32.69,14.85a43.4,43.4,0,0,0,17.6-3.53,37.85,37.85,0,0,0,14-10.57A48.61,48.61,0,0,0,398.79,814,82.31,82.31,0,0,0,401.94,790.25Z" transform="translate(-142.41 -81.55)"/>
    <path class="cls-1" d="M568.64,874.87V802H500v72.89H464.73V704.63H500v67.09h68.6V704.63H604V874.87Z" transform="translate(-142.41 -81.55)"/>
    <path class="cls-1" d="M740.65,874.87l-11.12-35.31H667.44l-11,35.31H621.1l55.65-170.24h46.16l56.32,170.24ZM705.28,761.29q-2-6.52-3.7-13.07c-1.1-4.36-2.08-8.54-2.93-12.57h-.49q-1.23,6.29-3,12.7T691.75,761l-16.29,50.53H721.7Z" transform="translate(-142.41 -81.55)"/>
    <path class="cls-1" d="M899.54,874.87l-50.19-81.71q-8.08-12.87-13.75-23.33a165.74,165.74,0,0,1-8.45-17.53h-.5q1.26,13.11,2.14,35.18t.88,41.24v46.15h-34V704.63h40.6l46.41,75.66q7.82,12.62,13.49,23.21t8.7,17.65h.25q-.75-9.33-1.51-21.94t-1.13-26.61q-.39-14-.38-26.86V704.63h34.05V874.87Z" transform="translate(-142.41 -81.55)"/>
  </g>
  <g>
    <path class="cls-1" d="M724,129.84q-.6,13.57-.9,29.13t-.61,37.12q-.3,21.58-2.71,57.49-1.21,22.35-4.38,46.94a225.59,225.59,0,0,1-10.56,45.72q-7.41,21.13-21,34.71t-35.92,13.58a31.6,31.6,0,0,1-10.41-3.47q-5.58-2.87-9.2-2.87a13.71,13.71,0,0,0-9.36,3.17,51.81,51.81,0,0,0-6.49,6.79,31.9,31.9,0,0,0-4.68,8.3,28.82,28.82,0,0,1-4.22,7.7,148.83,148.83,0,0,1-23.24,26,223.37,223.37,0,0,1-28.52,21.43,283,283,0,0,1-30.94,17.05Q505.18,486,491.6,490.81q-13,3.92-30.94,8.15t-39.54,7.69q-21.58,3.48-46.63,5.28t-51.61,1.82a584.79,584.79,0,0,1-64.74-3.48q-31.23-3.47-55.53-11.46T164,477.23q-14.34-13.59-14.34-33.81,0-3.92.76-14t2-23.39q1.2-13.28,2.72-27.92t3.62-26.26q2.1-11.61,4.37-19.77t4.68-8.14a4.64,4.64,0,0,1,1.81.6c.8.4,1.61,1.51,2.42,3.32a103.33,103.33,0,0,0-1.81,15.39q-.61,10-.61,17.2,0,18.72,8,30.94A68.54,68.54,0,0,0,199.14,412a104.75,104.75,0,0,0,30.94,12.68,303.35,303.35,0,0,0,36.82,6.49,388.4,388.4,0,0,0,38.93,2.57q19.47.3,36.67.3,33.5,0,72.74-2.27A644.8,644.8,0,0,0,491,423.05a356.79,356.79,0,0,0,67.16-18.41q30.61-11.92,47.23-30.63,5.43-6.64,10.11-12.53a65.63,65.63,0,0,1,9.66-10A42.85,42.85,0,0,1,636,345c3.93-1.61,9.1-2.41,15.55-2.41l2.11,1.81a22.27,22.27,0,0,1,7.54,2.41,13.76,13.76,0,0,0,6.64,1.81q9.66,0,17.51-15.09t7.85-44.66q0-21.73-.31-39.69t-.3-32.75q0-29,2.42-48.14a194.42,194.42,0,0,1,6.49-32.44,146,146,0,0,1,8.6-22.34A123.92,123.92,0,0,0,717.35,96V92.72a58.6,58.6,0,0,0,3.62-6,24,24,0,0,1,3.62-5.13L726.41,96Q724.6,116.26,724,129.84ZM350.05,565.66q8.74,18.4,38.33,27.76c4.42.8,6.64,1.81,6.64,3v2.72q0,13.58-33.81,40.14a39.78,39.78,0,0,1-10.56,1.81q-29-14.19-33.5-29.58V607A237.44,237.44,0,0,1,350.05,565.66Z" transform="translate(-142.41 -81.55)"/>
    <path class="cls-1" d="M835.06,438.29q5.43-23.54,10.71-43a189.92,189.92,0,0,1,12.07-33.35q6.79-13.87,14.64-21.58T890,332.66q8.14,0,13.43,3a30.34,30.34,0,0,1,8.6,7.09,26.89,26.89,0,0,1,4.83,8.75,26.48,26.48,0,0,1,1.51,7.7q0,6.94-3.62,6.94-6,0-11.92-5t-11.62-5A30,30,0,0,0,876,360.12a38.42,38.42,0,0,0-11.16,9.51,39,39,0,0,0-6.49,12.07,36.74,36.74,0,0,0-2.12,11q0,12.38,7.1,20.37t20.07,8q12.38,0,18.56-4.38A39.23,39.23,0,0,0,912,406.45a60.68,60.68,0,0,0,6.19-11.77,33.85,33.85,0,0,1,4.68-8.9,13.67,13.67,0,0,1,3,3.92,11.8,11.8,0,0,1,.61,4.23q-18.42,58.54-40.75,89.18t-51.91,30.64q-21.74,0-35.61-13t-21.58-36.52q-7.7-23.55-10.57-56.89t-2.86-74.7q0-35.31.75-63.38t3.47-52.52A261.72,261.72,0,0,1,777,169.83a292.11,292.11,0,0,1,18.56-46l4.23-1.81q-.62,14.79-1.81,25.81t-2.42,21.28q-1.21,10.26-2.11,21.12t-1.51,26q-.61,15.09-1.21,36.07t-.6,50.85v29.73a263.5,263.5,0,0,0,3,39.08,160.31,160.31,0,0,0,10.41,38q7.4,17.82,22.79,26.56Zm35.31-238.43h1.21q13,20.82,41.35,29c5,1.62,7.54,3,7.54,4.23v1.81q0,16.31-36.52,44.07a23.89,23.89,0,0,1-11.16,3q-20.53-6.93-37.73-30.78v-4.53Q835.06,239.4,870.37,199.86Z" transform="translate(-142.41 -81.55)"/>
  </g>
</svg>
